<?xml version="1.0" standalone="no"?>
<!DOCTYPE svg PUBLIC "-//W3C//DTD SVG 20010904//EN"
 "http://www.w3.org/TR/2001/REC-SVG-20010904/DTD/svg10.dtd">
<svg version="1.0" xmlns="http://www.w3.org/2000/svg"
 width="400.000000pt" height="400.000000pt" viewBox="0 0 400.000000 400.000000"
 preserveAspectRatio="xMidYMid meet">
<metadata>
Created by potrace 1.11, written by Peter Selinger 2001-2013
</metadata>
<g transform="translate(0.000000,400.000000) scale(0.100000,-0.100000)"
fill="#000000" stroke="none">
<path d="M674 3823 c2 -2 -10 -17 -26 -33 -16 -17 -27 -34 -23 -40 3 -5 1 -10
-5 -10 -6 0 -8 -5 -4 -11 3 -6 1 -15 -5 -19 -7 -4 -13 -17 -14 -28 -1 -12 -5
-22 -10 -22 -5 0 -7 -9 -4 -20 3 -10 0 -21 -6 -23 -5 -1 4 -18 21 -35 18 -18
32 -28 32 -23 0 5 11 8 25 7 17 -2 26 3 30 15 4 11 10 19 15 19 5 0 7 7 4 15
-4 8 -1 15 6 15 6 0 9 4 5 9 -3 5 -1 12 4 16 6 3 7 13 4 22 -4 11 -3 14 5 9 7
-4 12 -2 12 4 0 14 50 2 73 -18 14 -12 17 -13 17 -1 0 11 2 11 10 -1 9 -15 13
-16 46 -19 8 0 12 -5 9 -11 -4 -6 5 -10 19 -10 14 0 26 -4 26 -9 0 -5 8 -8 18
-7 9 0 16 -4 15 -9 -1 -6 10 -12 25 -13 15 -1 29 -7 30 -12 2 -6 12 -10 23
-10 10 0 19 -5 19 -11 0 -5 5 -7 10 -4 6 3 13 -1 16 -9 3 -9 10 -14 14 -11 5
3 15 -2 24 -11 9 -8 20 -13 25 -10 5 3 11 -1 15 -9 3 -8 15 -15 26 -15 12 0
18 -4 15 -10 -3 -5 1 -10 9 -10 9 0 18 0 21 0 3 0 14 -9 26 -21 11 -11 27 -18
35 -15 9 3 12 2 9 -5 -4 -6 2 -13 14 -16 12 -3 21 -9 21 -14 0 -5 7 -9 15 -9
8 0 15 -4 15 -10 0 -5 7 -10 15 -10 8 0 15 -5 15 -12 0 -6 3 -9 6 -5 4 3 12 1
19 -6 19 -18 52 -40 61 -40 15 -1 32 -22 26 -31 -3 -5 0 -6 6 -2 6 4 20 -2 31
-13 11 -11 22 -17 25 -14 3 4 6 1 6 -5 0 -7 7 -12 16 -12 8 0 12 -4 9 -10 -3
-5 1 -10 9 -10 9 0 16 -4 16 -10 0 -5 4 -10 10 -10 9 0 43 -26 81 -62 9 -9 20
-14 23 -10 3 3 6 -2 6 -11 0 -10 5 -14 15 -11 9 4 15 0 15 -10 0 -9 5 -16 11
-16 7 0 19 -8 28 -19 23 -26 72 -31 94 -9 9 10 14 18 11 18 -4 0 -1 6 5 14 8
9 8 16 2 20 -6 4 -8 13 -4 21 3 8 1 15 -4 15 -6 0 -24 14 -42 30 -17 17 -31
28 -31 26 0 -3 -13 8 -28 22 -43 41 -71 62 -83 62 -5 0 -7 5 -4 10 3 6 -3 10
-15 10 -12 0 -18 5 -15 10 3 6 -1 10 -9 10 -9 0 -16 5 -16 10 0 6 -7 10 -15
10 -7 0 -18 7 -23 16 -5 9 -13 17 -18 17 -5 1 -8 6 -6 10 1 5 -1 6 -6 3 -5 -3
-18 4 -30 14 -12 11 -26 20 -32 20 -5 0 -10 5 -10 10 0 6 -7 10 -15 10 -8 0
-15 5 -15 10 0 6 -7 10 -15 10 -8 0 -15 5 -15 11 0 5 -4 8 -8 5 -5 -3 -14 4
-22 14 -8 10 -18 16 -22 13 -5 -3 -16 3 -23 13 -8 11 -15 15 -15 9 0 -7 -3 -7
-8 0 -13 18 -71 55 -87 55 -8 0 -15 5 -15 10 0 6 -7 10 -15 10 -8 0 -15 3 -15
8 0 4 -9 13 -21 20 -12 8 -18 9 -14 3 3 -6 1 -11 -4 -11 -6 0 -11 5 -11 10 0
6 -7 10 -16 10 -8 0 -12 5 -9 10 4 6 -5 10 -20 10 -15 0 -24 4 -20 10 5 9 -15
15 -37 11 -5 0 -8 3 -8 9 0 5 -9 10 -21 10 -11 0 -17 5 -14 10 3 6 -1 10 -10
10 -9 0 -27 7 -40 16 -13 9 -29 13 -35 9 -5 -3 -10 -1 -10 4 0 6 -8 11 -19 11
-10 0 -24 7 -31 15 -7 9 -19 14 -26 11 -7 -3 -18 1 -24 9 -6 7 -20 12 -31 10
-11 -2 -17 0 -14 6 4 5 3 9 -2 10 -4 0 -17 3 -28 6 -23 7 -127 11 -121 6z"/>
<path d="M3204 3816 c-23 -7 -47 -17 -55 -22 -15 -9 -35 -15 -61 -17 -9 -1
-16 -6 -15 -12 1 -5 -10 -10 -25 -9 -15 0 -24 -4 -22 -8 3 -4 -1 -10 -8 -12
-7 -2 -20 -6 -28 -9 -8 -2 -19 -6 -25 -7 -5 -2 -16 -10 -23 -19 -11 -13 -12
-13 -7 -1 4 8 -1 6 -9 -4 -11 -14 -16 -16 -16 -6 0 9 -6 6 -16 -8 -13 -19 -18
-21 -32 -10 -10 7 -14 8 -9 3 8 -10 -43 -46 -55 -39 -4 3 -8 0 -8 -6 0 -8 -34
-27 -60 -32 -3 -1 -11 -8 -18 -15 -8 -7 -18 -11 -23 -8 -5 4 -9 -1 -9 -10 0
-9 -4 -14 -9 -10 -5 3 -17 -2 -25 -11 -9 -9 -23 -13 -31 -10 -10 3 -12 0 -8
-11 4 -10 2 -14 -7 -11 -7 2 -24 -6 -38 -19 -13 -12 -28 -20 -32 -18 -4 3 -10
-2 -14 -10 -3 -8 -11 -15 -18 -15 -7 0 -25 -11 -40 -24 -14 -14 -29 -22 -32
-19 -3 4 -6 1 -6 -6 0 -7 -4 -10 -9 -7 -5 3 -12 -1 -15 -10 -4 -9 -9 -14 -12
-11 -3 3 -14 -2 -23 -11 -34 -32 -61 -52 -71 -52 -5 0 -14 -9 -20 -20 -6 -11
-15 -18 -19 -15 -5 3 -12 -2 -15 -11 -4 -10 -12 -14 -23 -10 -10 4 -14 4 -10
0 7 -7 -41 -54 -55 -54 -5 0 -8 -8 -8 -17 0 -13 -3 -15 -8 -5 -6 9 -12 6 -22
-12 -7 -14 -17 -23 -21 -20 -10 6 -35 -44 -34 -67 1 -51 74 -66 119 -24 14 13
26 22 26 19 0 -3 6 1 14 8 8 7 12 16 9 20 -2 4 4 5 14 1 10 -3 15 -2 11 2 -8
9 31 42 45 37 4 -1 7 6 7 15 0 9 3 13 6 10 4 -4 15 3 25 15 11 11 19 18 19 15
0 -7 7 -2 68 50 15 13 31 23 35 23 4 0 17 9 29 20 12 10 25 17 30 14 5 -3 7
-1 6 4 -2 6 1 10 6 10 5 0 12 4 15 9 8 11 59 44 67 42 4 0 10 3 13 8 3 4 15
15 25 23 18 13 19 13 12 0 -4 -8 1 -6 11 6 16 19 43 34 59 33 3 0 12 8 20 18
7 10 14 14 14 9 0 -6 7 -1 15 10 8 10 15 15 15 11 0 -5 7 -1 16 7 8 9 19 14
24 11 5 -3 15 3 22 13 7 11 21 18 31 16 10 -1 14 2 10 9 -4 6 0 8 10 4 10 -3
17 -2 17 2 0 5 14 14 30 20 17 5 30 16 30 23 0 9 3 9 10 -2 6 -9 10 -10 10 -3
0 11 37 29 53 25 4 -1 10 4 13 12 3 8 12 12 20 9 8 -3 14 1 14 8 0 7 3 9 7 6
3 -4 15 1 26 10 11 10 17 13 14 6 -4 -6 10 -3 32 7 54 27 94 33 87 14 -3 -7
-1 -14 4 -14 8 0 21 -28 26 -60 2 -8 8 -16 14 -18 5 -2 8 -7 6 -11 -2 -3 7
-11 20 -18 13 -6 22 -7 18 -2 -8 13 10 11 25 -3 11 -10 13 -10 7 0 -6 11 5 16
26 13 4 0 5 6 2 13 -3 8 -1 24 6 35 7 13 7 21 1 21 -6 0 -8 7 -5 15 4 8 1 15
-6 15 -7 0 -10 8 -7 20 3 10 -1 24 -9 31 -8 6 -14 17 -14 25 0 7 -7 20 -16 28
-8 9 -12 16 -7 16 4 0 -5 9 -22 20 -34 23 -72 24 -131 6z"/>
<path d="M370 3494 c0 -6 -14 -9 -31 -6 -21 3 -30 1 -25 -6 4 -7 -1 -9 -14 -7
-13 2 -20 -1 -20 -11 0 -8 -4 -14 -10 -14 -5 0 -10 -7 -10 -16 0 -8 -3 -13 -7
-11 -8 5 -15 -38 -16 -95 -1 -15 -5 -24 -10 -21 -4 2 -7 -15 -6 -39 3 -49 25
-78 60 -76 40 3 61 24 62 66 0 6 4 12 9 12 5 0 9 10 8 23 -3 37 1 83 7 70 2
-7 9 -13 14 -13 6 0 7 6 3 13 -6 9 -4 9 7 1 8 -5 32 -12 54 -13 22 -2 46 -7
52 -13 7 -6 24 -8 38 -6 14 3 25 1 25 -3 0 -5 7 -6 15 -3 8 4 15 2 15 -3 0 -6
14 -10 31 -11 17 0 37 -6 44 -12 8 -6 22 -10 33 -8 10 2 27 -4 37 -12 17 -13
18 -13 10 0 -8 13 -6 13 8 2 9 -8 21 -11 27 -7 5 3 10 2 10 -4 0 -6 7 -7 17
-4 12 5 14 3 8 -7 -6 -10 -2 -12 19 -8 14 3 26 2 26 -3 0 -4 16 -11 35 -15 19
-3 33 -9 30 -13 -2 -4 2 -8 10 -8 8 0 11 5 8 11 -4 6 1 5 10 -2 9 -8 21 -11
27 -7 6 4 9 1 8 -5 -3 -11 16 -19 50 -22 6 -1 12 -4 12 -8 0 -3 10 -7 22 -7
13 -1 24 -7 26 -13 2 -5 15 -10 28 -10 13 0 24 -5 24 -11 0 -6 9 -9 19 -6 12
3 22 -1 25 -9 3 -8 14 -14 24 -14 10 0 23 -5 30 -12 7 -7 12 -8 12 -3 0 5 7 0
16 -11 8 -10 13 -14 10 -7 -5 8 0 8 19 0 14 -7 25 -15 25 -19 0 -5 9 -8 20 -8
11 0 20 -5 20 -11 0 -5 5 -7 10 -4 6 3 10 2 10 -4 0 -6 7 -7 17 -4 11 4 14 3
9 -5 -5 -8 0 -12 13 -12 10 0 21 -5 23 -10 2 -6 13 -12 26 -13 12 0 22 -5 22
-9 0 -4 5 -8 11 -8 6 0 17 -7 26 -15 8 -8 19 -13 24 -10 5 4 9 1 9 -4 0 -6 7
-11 15 -11 8 0 15 -5 15 -11 0 -5 5 -7 10 -4 6 3 13 -1 16 -9 3 -9 10 -14 14
-11 5 3 14 -1 22 -8 7 -7 28 -20 46 -28 17 -7 32 -16 32 -19 0 -3 11 -5 25 -5
14 0 25 4 25 8 0 5 4 5 10 2 6 -4 7 1 3 11 -4 12 -3 15 5 10 8 -5 12 3 12 27
0 32 -32 77 -55 77 -5 0 -17 8 -28 18 -12 10 -17 11 -12 3 5 -10 4 -12 -3 -7
-7 4 -12 15 -12 24 0 15 -2 15 -10 2 -7 -11 -10 -11 -10 -2 0 7 -4 11 -9 8 -5
-3 -12 1 -15 10 -3 8 -10 13 -15 9 -6 -3 -14 2 -19 11 -5 9 -12 16 -15 16 -21
0 -46 12 -51 24 -3 7 -12 11 -21 8 -8 -3 -15 -1 -15 5 0 6 -8 11 -19 11 -10 0
-24 7 -31 15 -7 9 -19 14 -26 11 -7 -3 -15 2 -18 10 -3 9 -10 12 -16 9 -5 -3
-10 -3 -10 2 0 9 -48 33 -67 33 -7 0 -13 6 -13 13 0 9 -2 9 -9 -1 -7 -11 -9
-11 -14 2 -4 9 -15 16 -26 16 -11 0 -25 8 -30 18 -8 13 -10 14 -11 2 0 -9 -3
-11 -8 -5 -11 15 -56 39 -47 25 9 -14 -36 10 -47 25 -4 6 -8 6 -8 1 0 -4 -12
-1 -26 9 -15 9 -23 12 -19 5 4 -7 -4 -4 -18 5 -15 9 -30 14 -36 11 -5 -3 -11
-2 -13 3 -1 5 -12 11 -23 13 -11 1 -22 6 -25 9 -3 4 -16 9 -30 10 -14 2 -27 6
-30 9 -13 13 -51 30 -45 21 8 -14 4 -14 -38 4 -19 8 -37 11 -41 8 -3 -4 -6 -2
-6 3 0 5 -8 11 -17 12 -22 2 -58 10 -58 12 0 1 -17 6 -47 13 -7 1 -19 7 -27
11 -9 6 -12 5 -7 -2 4 -7 -4 -6 -20 3 -14 7 -35 12 -45 10 -11 -2 -19 -1 -19
3 0 4 -19 8 -43 10 -23 1 -43 7 -45 12 -2 6 -12 5 -24 -1 -18 -10 -20 -9 -14
6 5 14 4 15 -7 7 -10 -9 -17 -8 -25 0 -7 7 -12 8 -12 2z"/>
<path d="M3584 3490 c-6 -6 -30 -13 -55 -16 -24 -3 -47 -11 -51 -17 -6 -9 -8
-9 -8 1 0 8 -5 10 -12 5 -13 -8 -25 -11 -68 -17 -14 -2 -26 -5 -27 -6 -5 -4
-22 -7 -49 -9 -14 0 -23 -5 -20 -10 3 -4 -6 -7 -19 -5 -14 1 -25 -1 -25 -6 0
-5 -11 -7 -25 -6 -14 2 -22 -1 -18 -7 3 -5 0 -7 -8 -5 -8 3 -23 -2 -33 -11
-16 -13 -18 -13 -11 -1 8 13 7 13 -8 1 -9 -7 -17 -10 -17 -6 0 4 -7 2 -15 -5
-8 -7 -15 -9 -15 -5 0 4 -7 2 -15 -5 -8 -7 -15 -9 -15 -5 0 4 -7 2 -15 -5 -8
-7 -15 -9 -15 -4 0 4 -5 3 -12 -4 -7 -7 -22 -12 -35 -12 -13 0 -23 -5 -23 -11
0 -7 -10 -9 -25 -7 -14 3 -23 1 -22 -6 2 -10 -4 -12 -39 -15 -8 0 -13 -4 -11
-8 3 -5 -9 -9 -26 -10 -18 -2 -33 -7 -35 -13 -2 -5 -12 -10 -23 -10 -10 0 -19
-4 -19 -8 0 -5 -6 -9 -12 -9 -19 -1 -42 -7 -48 -14 -12 -13 -94 -48 -102 -43
-4 3 -8 1 -8 -4 0 -6 -13 -15 -30 -21 -16 -5 -30 -16 -30 -23 0 -9 -3 -9 -10
2 -8 13 -10 13 -10 -2 0 -11 -6 -16 -20 -13 -11 2 -20 0 -20 -6 0 -5 -7 -9
-15 -9 -7 0 -19 -8 -24 -17 -6 -10 -11 -14 -11 -9 0 4 -11 1 -25 -8 -14 -9
-31 -14 -37 -10 -6 4 -8 3 -5 -3 4 -6 -23 -25 -58 -44 -36 -19 -65 -37 -65
-41 0 -5 -3 -7 -7 -7 -19 3 -36 -2 -30 -8 4 -3 -2 -12 -12 -20 -24 -16 -19
-59 10 -86 17 -16 22 -17 36 -5 12 9 15 10 9 0 -6 -10 -2 -10 18 -1 14 7 24
15 21 18 -2 4 6 8 17 8 12 1 24 6 27 11 10 16 82 53 91 47 5 -3 12 0 16 6 5 8
3 9 -7 4 -12 -7 -12 -6 -1 7 8 9 20 14 28 11 8 -3 14 -1 14 4 0 4 9 14 21 21
17 11 20 11 14 0 -3 -7 1 -4 9 6 9 11 16 16 16 12 0 -5 7 -3 15 4 8 7 15 9 15
4 0 -5 5 -1 11 9 6 9 14 15 20 12 5 -4 9 -1 9 6 0 7 2 10 6 7 3 -3 26 5 51 18
26 13 51 20 56 17 6 -3 7 -1 3 5 -4 7 -1 12 8 12 9 0 16 6 16 13 0 8 4 7 10
-3 5 -8 10 -10 10 -4 0 10 12 16 50 28 3 1 11 5 18 9 6 5 12 5 12 0 0 -4 4 -2
9 5 4 7 18 14 29 15 12 1 22 5 22 9 0 4 9 8 19 8 11 0 23 5 26 10 4 6 11 8 16
5 5 -4 9 -1 9 5 0 6 5 8 10 5 6 -3 10 -1 10 6 0 8 5 7 17 -2 11 -10 14 -10 9
-1 -7 11 19 18 48 13 5 -1 6 4 3 11 -3 9 4 14 22 14 33 1 54 7 62 18 4 5 18 9
33 9 14 0 26 3 26 7 0 5 11 7 25 6 13 -2 22 0 20 4 -3 4 15 11 40 14 25 4 45
11 45 16 0 4 9 6 20 3 11 -3 20 -1 20 4 0 5 14 9 30 8 17 -1 30 2 30 6 0 5 7
6 15 3 8 -4 21 -2 28 3 6 5 23 10 37 11 38 3 54 7 69 16 10 6 12 5 7 -2 -4 -7
-2 -12 3 -12 6 0 11 6 11 12 0 26 32 -35 34 -63 0 -16 5 -29 11 -29 5 0 3 -5
-5 -10 -10 -6 -11 -10 -2 -10 6 0 12 -9 12 -21 0 -11 4 -18 9 -15 5 3 11 -1
14 -9 4 -9 18 -13 41 -12 19 1 32 5 29 10 -2 4 -1 7 4 7 15 0 31 48 20 59 -6
6 -7 11 -3 11 5 0 2 8 -5 17 -12 14 -12 15 -1 9 11 -7 12 -4 4 10 -5 11 -8 29
-7 42 1 12 -3 22 -8 22 -5 0 -7 7 -3 15 3 8 1 15 -4 15 -6 0 -10 8 -10 18 0
19 -35 54 -44 45 -3 -4 -6 -1 -6 6 0 7 -4 9 -10 6 -5 -3 -10 -2 -10 4 0 6 -11
6 -29 1 -16 -4 -33 -4 -38 1 -5 5 -13 5 -19 -1z"/>
<path d="M93 3070 c1 -3 -2 -7 -8 -10 -18 -10 -52 -45 -58 -62 -3 -10 -10 -18
-15 -18 -6 0 -10 -476 -9 -1176 0 -982 2 -1177 13 -1181 8 -3 11 -9 8 -15 -7
-11 31 -50 40 -41 3 4 6 1 6 -5 0 -7 7 -12 16 -12 8 0 13 -4 10 -8 -3 -5 9 -9
27 -9 203 -5 226 -7 220 -17 -4 -6 1 -5 11 3 10 9 20 11 24 5 11 -14 32 -16
32 -2 0 9 3 9 12 0 7 -7 17 -12 23 -12 5 0 3 5 -5 10 -8 5 -10 10 -4 10 6 0
14 -3 18 -7 3 -4 26 -8 49 -10 23 -1 58 -5 77 -8 19 -3 60 -8 90 -11 30 -3 57
-10 59 -16 2 -6 7 -5 12 3 8 12 11 11 19 -1 8 -12 10 -12 10 -1 0 11 3 11 15
1 8 -7 22 -10 30 -6 8 3 15 1 15 -3 0 -5 9 -7 20 -4 11 3 20 1 20 -3 0 -5 12
-10 28 -11 61 -4 82 -8 82 -17 0 -4 12 -6 26 -3 14 2 31 -2 40 -10 11 -11 14
-12 14 -1 0 10 3 9 10 -2 5 -8 12 -11 16 -8 3 4 23 0 42 -8 20 -8 42 -12 49
-10 7 3 13 1 13 -5 0 -6 5 -7 10 -4 5 3 10 2 10 -2 0 -8 15 -12 58 -15 6 -1
12 -5 12 -8 0 -4 12 -7 27 -7 15 0 29 -5 31 -11 2 -6 10 -8 18 -5 8 3 14 1 14
-5 0 -6 9 -8 20 -5 11 3 20 0 20 -6 0 -6 12 -11 26 -11 14 0 23 -4 20 -9 -3
-5 6 -9 20 -9 15 0 30 -5 34 -12 4 -7 15 -10 24 -7 8 3 22 0 30 -8 8 -8 19
-15 25 -15 6 0 19 -4 29 -9 78 -39 107 -51 124 -51 10 0 17 -4 13 -10 -3 -6
20 -8 60 -7 52 2 69 6 76 20 6 10 14 15 18 12 9 -5 38 54 33 68 -1 4 4 7 10 7
9 0 8 4 -2 10 -11 7 -11 10 -2 10 7 0 10 5 6 11 -9 15 -11 119 -1 119 4 0 7 5
7 11 0 5 -3 8 -7 6 -5 -3 -8 46 -8 109 0 63 3 114 8 114 4 0 7 5 7 11 0 5 -4
8 -8 5 -5 -3 -6 14 -2 38 3 24 3 53 -2 65 -4 12 -4 20 0 17 4 -2 5 20 2 50 -3
30 -2 54 2 54 4 0 8 5 8 11 0 5 -3 8 -7 6 -5 -3 -8 46 -8 109 0 63 3 114 8
114 4 0 7 5 7 11 0 5 -4 8 -8 5 -5 -3 -6 14 -2 38 3 24 3 53 -2 65 -4 12 -4
20 0 17 4 -2 5 20 2 50 -3 30 -2 54 2 54 4 0 8 5 8 11 0 5 -3 8 -7 6 -5 -3 -8
46 -8 109 0 63 3 114 8 114 4 0 7 5 7 11 0 5 -4 8 -8 5 -5 -3 -6 14 -2 38 3
24 3 53 -2 65 -4 12 -4 20 0 17 4 -2 5 20 2 50 -3 30 -2 54 2 54 4 0 8 5 8 11
0 5 -3 8 -7 6 -5 -3 -8 82 -8 189 0 107 3 194 8 194 4 0 7 5 7 11 0 5 -4 8 -8
5 -5 -3 -6 14 -2 38 3 24 3 53 -2 65 -4 12 -4 20 0 17 4 -2 6 14 4 36 -3 28
-1 38 7 34 7 -5 9 -1 5 8 -3 9 -10 13 -15 10 -5 -3 -5 4 -1 17 9 24 4 79 -8
79 -5 0 -7 8 -6 17 2 10 -7 25 -18 35 -12 9 -16 18 -11 18 11 0 -83 50 -100
53 -5 1 -12 4 -15 7 -12 12 -51 30 -46 21 4 -5 -7 -3 -24 5 -17 9 -28 19 -25
24 3 4 -4 6 -15 3 -12 -3 -20 0 -20 6 0 7 -4 10 -8 7 -5 -3 -21 2 -36 9 -16 8
-32 12 -37 9 -5 -3 -9 0 -9 6 0 6 -4 9 -9 6 -5 -4 -11 -2 -13 4 -1 5 -12 11
-23 13 -11 1 -26 6 -32 10 -7 5 -21 10 -30 12 -10 2 -38 10 -63 18 -25 9 -54
17 -65 19 -11 2 -23 6 -26 10 -3 5 -17 9 -32 10 -15 1 -27 6 -27 11 0 5 -7 7
-15 4 -8 -4 -17 -2 -20 3 -3 5 -14 7 -25 5 -11 -2 -20 0 -20 6 0 5 -13 9 -29
9 -17 0 -32 4 -36 9 -3 6 -13 10 -23 10 -50 2 -72 6 -72 11 0 6 -26 11 -72 13
-16 0 -28 4 -28 9 0 4 -7 4 -17 1 -11 -4 -14 -3 -9 5 4 8 2 10 -8 6 -8 -3 -24
0 -36 6 -14 7 -20 8 -16 2 4 -6 -2 -10 -14 -9 -11 1 -20 8 -21 17 0 10 -2 11
-6 2 -2 -6 -8 -10 -12 -7 -4 2 -25 5 -45 7 -21 1 -40 6 -43 11 -2 4 -12 2 -21
-5 -9 -7 -13 -8 -9 -2 6 10 -40 16 -130 17 -18 0 -33 4 -33 8 0 9 -20 6 -39
-5 -9 -6 -12 -5 -7 2 4 7 -3 10 -21 8 -16 -1 -43 1 -60 5 -19 4 -33 3 -33 -3
0 -5 -5 -6 -12 -2 -13 8 -227 12 -225 4z m193 -124 c8 -3 14 0 15 7 0 7 2 8 5
2 2 -5 29 -10 59 -9 30 0 55 -3 55 -7 0 -5 7 -6 15 -3 8 4 12 11 8 18 -3 6 2
3 13 -6 11 -9 28 -17 39 -17 62 2 135 -5 135 -12 0 -5 5 -9 11 -9 5 0 7 6 3
13 -6 9 -4 9 7 1 8 -5 32 -12 54 -13 22 -2 48 -7 59 -13 10 -6 16 -6 13 -1 -7
11 70 -7 92 -21 10 -6 12 -6 7 2 -4 7 -2 12 3 12 6 0 11 -4 11 -8 0 -8 22 -12
68 -15 12 0 22 -3 22 -6 0 -4 16 -7 36 -7 20 -1 39 -5 43 -10 3 -5 22 -11 41
-12 19 -2 37 -7 40 -10 3 -4 21 -9 40 -10 19 -2 40 -7 45 -12 10 -7 70 -24 90
-25 6 0 16 -7 23 -15 12 -13 13 -13 6 0 -6 12 -4 13 7 3 7 -7 23 -13 36 -13
13 0 23 -5 23 -11 0 -6 7 -9 15 -5 8 3 21 -2 30 -10 8 -9 15 -12 15 -8 0 3 7
1 15 -6 11 -9 15 -10 15 -1 0 8 6 7 16 -3 8 -9 24 -16 35 -16 10 0 19 -5 19
-11 0 -6 6 -9 14 -6 8 3 22 -3 32 -14 12 -13 21 -16 29 -9 9 8 14 6 19 -5 3
-8 15 -15 26 -15 12 0 19 -4 16 -9 -4 -5 2 -8 11 -7 10 2 38 -9 63 -24 43 -25
45 -28 45 -73 0 -26 4 -47 10 -47 5 0 3 -5 -5 -10 -8 -5 -10 -10 -5 -10 6 0
10 -15 10 -34 0 -19 -3 -32 -7 -29 -5 2 -8 0 -8 -6 0 -5 4 -12 9 -15 5 -3 5
-20 2 -38 -4 -18 -4 -47 0 -65 4 -18 2 -36 -4 -42 -8 -8 -8 -11 0 -11 8 0 9
-9 3 -29 -4 -16 -6 -31 -4 -34 10 -9 12 -47 3 -42 -13 9 -11 -9 3 -23 8 -8 8
-12 1 -12 -10 0 -9 -58 2 -68 3 -3 0 -11 -6 -19 -6 -7 -8 -13 -3 -13 5 0 9
-15 9 -34 0 -19 -3 -32 -7 -29 -5 2 -8 0 -8 -6 0 -5 4 -12 9 -15 5 -3 5 -20 2
-38 -4 -18 -4 -47 0 -65 4 -18 2 -36 -4 -42 -8 -8 -8 -11 0 -11 8 0 9 -9 3
-29 -4 -16 -6 -31 -4 -34 10 -9 12 -47 3 -42 -13 9 -11 -9 3 -23 8 -8 8 -12 1
-12 -10 0 -9 -58 2 -68 3 -3 0 -11 -6 -19 -6 -7 -8 -13 -3 -13 5 0 9 -15 9
-34 0 -19 -3 -32 -7 -29 -5 2 -8 0 -8 -6 0 -5 4 -12 9 -15 5 -3 5 -20 2 -38
-4 -18 -4 -47 0 -65 4 -18 2 -36 -4 -42 -8 -8 -8 -11 0 -11 8 0 9 -9 3 -29 -4
-16 -6 -31 -4 -34 10 -9 12 -47 3 -42 -13 9 -11 -9 3 -23 8 -8 8 -12 1 -12
-10 0 -9 -58 2 -68 3 -3 0 -11 -6 -19 -6 -7 -8 -13 -3 -13 5 0 9 -15 9 -34 0
-19 -3 -32 -7 -29 -5 2 -8 0 -8 -6 0 -5 4 -12 9 -15 5 -3 5 -20 2 -38 -4 -18
-4 -50 0 -70 3 -21 2 -35 -2 -32 -5 3 -9 1 -9 -5 0 -5 4 -12 9 -15 5 -3 5 -20
2 -38 -4 -18 -4 -47 0 -65 4 -18 2 -36 -4 -42 -8 -8 -8 -11 0 -11 8 0 9 -9 3
-29 -4 -16 -6 -31 -4 -34 10 -9 12 -47 3 -42 -13 9 -11 -9 3 -23 8 -8 8 -12 1
-12 -10 0 -9 -58 2 -68 3 -3 0 -11 -6 -19 -7 -7 -7 -13 -2 -13 9 0 8 -35 -3
-69 -3 -10 -8 -11 -16 -3 -6 6 -17 8 -26 5 -10 -4 -13 -2 -8 5 5 8 2 10 -8 6
-9 -3 -16 -1 -16 5 0 6 -5 11 -12 11 -23 0 -98 33 -93 40 3 5 -4 6 -15 3 -12
-3 -20 0 -20 6 0 7 -4 9 -10 6 -5 -3 -10 -2 -10 4 0 6 -7 8 -16 4 -9 -3 -19
-2 -23 3 -9 14 -54 37 -46 25 3 -6 2 -11 -4 -11 -5 0 -11 4 -13 10 -1 5 -13
11 -25 13 -12 2 -26 6 -29 10 -4 4 -16 7 -26 7 -10 0 -18 4 -18 8 0 4 -10 9
-22 10 -47 5 -63 10 -61 20 2 6 -4 9 -12 6 -9 -4 -23 0 -32 7 -11 10 -14 10
-9 2 5 -9 2 -11 -8 -7 -9 3 -16 10 -16 14 0 5 -8 6 -18 3 -10 -2 -30 2 -46 11
-16 8 -37 13 -47 11 -11 -2 -19 0 -19 5 0 5 -7 7 -15 4 -8 -4 -15 -1 -15 5 0
6 -7 8 -15 5 -8 -4 -23 0 -32 7 -14 12 -16 12 -8 -1 8 -13 6 -13 -8 -2 -9 8
-21 11 -27 7 -5 -3 -10 -2 -10 4 0 6 -14 9 -30 7 -16 -2 -30 0 -30 4 0 7 -4 8
-55 12 -16 1 -33 7 -37 13 -5 6 -8 5 -8 -4 0 -10 -3 -11 -13 -2 -8 6 -39 12
-70 13 -31 1 -57 6 -57 11 0 5 -9 5 -20 2 -12 -4 -20 -2 -20 6 0 9 -3 9 -14 0
-8 -7 -17 -8 -19 -4 -3 5 -29 8 -57 7 -28 0 -53 3 -56 8 -3 5 -13 3 -22 -4
-14 -11 -15 -10 -8 7 5 14 4 17 -4 9 -7 -7 -28 -8 -55 -4 -25 4 -45 3 -45 -1
0 -4 -12 -4 -27 0 -16 4 -64 6 -109 5 -68 -1 -81 1 -83 15 -2 9 -4 514 -6
1124 -1 609 -5 1110 -8 1114 -4 3 1 12 11 20 11 9 11 12 2 7 -10 -5 -12 -4 -5
4 16 17 124 22 161 8z"/>
<path d="M3621 3074 c-1 -7 -12 -9 -27 -6 -21 4 -25 2 -19 -9 7 -12 6 -12 -7
-1 -12 9 -18 10 -23 2 -5 -8 -11 -8 -19 -1 -7 6 -16 8 -19 4 -4 -3 -33 -8 -64
-10 -31 -2 -60 -8 -64 -14 -4 -8 -8 -7 -11 1 -3 10 -9 10 -27 0 -19 -10 -22
-10 -15 2 6 10 5 11 -7 2 -8 -6 -30 -11 -49 -11 -24 0 -34 -4 -32 -13 2 -11 0
-11 -12 -1 -11 9 -16 9 -21 0 -6 -8 -10 -7 -16 2 -6 9 -9 10 -9 2 0 -6 -11
-10 -26 -8 -14 1 -32 -4 -40 -12 -9 -10 -14 -11 -14 -2 0 8 -4 8 -12 2 -7 -6
-25 -9 -40 -8 -16 1 -28 -1 -28 -5 0 -5 -7 -11 -16 -14 -8 -3 -12 -2 -9 4 4 7
-2 7 -17 1 -13 -5 -41 -13 -63 -17 -43 -8 -52 -10 -60 -14 -3 -1 -8 -3 -12 -5
-5 -1 -16 -5 -26 -9 -9 -5 -23 -6 -31 -3 -8 3 -17 -2 -21 -11 -5 -13 -8 -14
-14 -3 -6 9 -11 10 -15 2 -4 -6 -16 -11 -27 -11 -11 0 -18 -4 -15 -9 4 -5 -2
-8 -11 -6 -10 1 -34 -4 -52 -12 -19 -7 -41 -11 -48 -8 -9 3 -11 0 -7 -7 5 -7
2 -9 -9 -5 -9 3 -17 1 -19 -4 -2 -5 -13 -11 -26 -12 -12 0 -22 -5 -22 -10 0
-5 -6 -7 -12 -4 -7 2 -19 -3 -26 -12 -10 -12 -12 -13 -6 -1 7 12 5 13 -8 3 -8
-7 -18 -10 -21 -6 -4 3 -7 1 -7 -5 0 -7 -3 -11 -7 -11 -5 1 -11 0 -15 -1 -12
-4 -27 -7 -37 -9 -5 0 -17 -8 -25 -17 -12 -12 -16 -12 -16 -2 0 10 -3 9 -10
-2 -5 -8 -14 -16 -20 -16 -5 -1 -14 -2 -19 -3 -5 0 -17 -8 -25 -17 -10 -9 -16
-11 -16 -4 0 7 -7 5 -16 -4 -8 -9 -19 -14 -24 -11 -4 3 -13 -2 -20 -10 -7 -8
-15 -13 -19 -10 -4 2 -25 -12 -46 -31 -21 -19 -34 -34 -29 -34 5 0 3 -4 -4 -9
-8 -5 -15 -20 -15 -35 -1 -14 -6 -26 -10 -26 -4 0 -3 -9 3 -19 12 -23 14 -42
2 -24 -4 7 -7 -15 -5 -48 1 -33 5 -65 9 -71 4 -6 3 -8 -2 -5 -6 3 -8 -15 -4
-49 3 -30 2 -54 -2 -54 -4 0 -8 -5 -8 -11 0 -5 4 -7 10 -4 6 4 7 -2 1 -17 -6
-15 -5 -31 1 -42 8 -14 8 -17 -2 -11 -9 6 -9 3 -1 -13 8 -15 8 -21 -2 -25 -9
-3 -9 -7 2 -20 10 -13 10 -17 1 -17 -10 0 -10 -3 0 -15 10 -12 10 -19 2 -27
-8 -8 -8 -17 -1 -31 8 -15 8 -18 -1 -12 -9 6 -9 3 -1 -13 8 -15 8 -21 -2 -25
-9 -3 -9 -7 2 -20 9 -12 10 -17 2 -17 -7 0 -9 -5 -4 -12 10 -16 10 -68 1 -68
-5 0 -8 -5 -8 -11 0 -5 4 -8 8 -5 5 3 6 -14 2 -38 -3 -24 -3 -53 2 -65 4 -12
4 -20 0 -17 -4 2 -5 -20 -2 -50 3 -30 2 -54 -2 -54 -4 0 -8 -5 -8 -11 0 -5 4
-7 10 -4 6 4 7 -2 1 -17 -6 -15 -5 -31 1 -42 8 -14 8 -17 -2 -11 -9 6 -9 3 -1
-13 8 -15 8 -21 -2 -25 -9 -3 -9 -7 2 -20 9 -12 10 -17 2 -17 -7 0 -9 -5 -4
-12 10 -16 10 -68 1 -68 -5 0 -8 -5 -8 -11 0 -5 4 -8 8 -5 5 3 6 -14 2 -38 -3
-24 -3 -53 2 -65 4 -12 4 -20 0 -17 -4 2 -5 -20 -2 -50 3 -30 2 -54 -2 -54 -4
0 -8 -5 -8 -11 0 -5 4 -7 10 -4 6 4 7 -2 1 -17 -6 -15 -5 -31 1 -42 8 -14 8
-17 -2 -11 -9 6 -9 3 -1 -13 8 -15 8 -21 -2 -25 -9 -3 -9 -7 2 -20 9 -12 10
-17 2 -17 -7 0 -9 -5 -4 -12 10 -16 10 -68 1 -68 -5 0 -8 -5 -8 -11 0 -5 4 -8
8 -5 5 3 6 -14 2 -38 -3 -24 -3 -53 2 -65 4 -12 4 -20 0 -17 -4 2 -5 -20 -2
-50 3 -30 2 -54 -2 -54 -4 0 -8 -5 -8 -11 0 -5 4 -7 10 -4 6 4 7 -2 1 -17 -6
-15 -5 -31 1 -42 8 -14 8 -17 -2 -11 -9 6 -9 3 -1 -13 8 -15 8 -21 -2 -25 -9
-3 -9 -7 2 -20 9 -12 10 -17 2 -17 -7 0 -9 -5 -4 -13 10 -15 10 -67 1 -67 -5
0 -8 -5 -8 -11 0 -5 4 -8 8 -5 5 3 6 -14 2 -38 -3 -24 -3 -53 2 -65 4 -13 4
-20 -1 -16 -6 3 -6 -6 -1 -24 4 -16 6 -32 2 -35 -3 -3 0 -6 6 -6 7 0 12 -4 12
-10 0 -15 33 -50 47 -50 7 0 13 -4 13 -9 0 -13 100 -6 140 9 3 1 8 2 13 1 4 0
7 3 7 8 0 5 20 15 45 22 25 7 45 17 45 21 0 4 9 8 19 8 11 0 23 5 26 10 4 6
10 8 15 5 5 -3 11 -1 15 5 4 6 10 8 15 5 5 -3 11 -1 15 5 3 5 15 10 26 10 11
0 18 4 14 9 -3 6 4 8 15 6 11 -2 20 0 20 5 0 5 7 7 15 4 8 -4 15 -1 15 5 0 6
14 11 31 11 16 0 28 4 24 9 -3 6 4 8 15 6 11 -2 20 -1 20 3 0 4 8 8 18 8 24 1
46 8 52 16 5 7 60 20 88 21 6 0 12 3 12 7 0 5 18 9 58 12 6 1 12 6 12 12 0 6
5 4 10 -4 5 -8 10 -10 10 -5 0 6 8 12 18 13 27 3 46 7 57 13 6 3 26 6 45 8 19
2 40 7 46 12 6 5 16 4 24 -4 10 -9 11 -9 6 1 -7 11 17 17 52 13 8 -1 19 3 27
9 10 8 15 8 20 0 5 -8 11 -8 20 0 7 6 37 11 68 13 30 1 53 5 51 8 -2 3 16 7
39 7 74 2 122 8 136 16 8 5 17 3 22 -5 7 -12 9 -12 9 0 0 11 3 11 15 1 11 -9
15 -9 15 -1 0 7 10 10 24 7 14 -2 27 1 30 7 3 9 5 9 5 0 1 -6 10 -9 23 -5 16
4 19 2 13 -9 -7 -11 -6 -12 6 -3 8 7 52 15 99 18 107 7 110 7 110 18 0 5 5 6
10 3 6 -3 10 1 10 10 0 9 5 13 10 10 6 -3 10 1 10 10 0 9 4 14 9 11 11 -7 23
22 15 35 -3 5 -1 9 4 9 7 0 10 423 9 1170 -2 1029 -4 1172 -17 1180 -8 5 -11
10 -5 10 5 0 -2 11 -17 25 -15 14 -32 25 -38 25 -6 0 -9 4 -6 8 2 4 -5 9 -17
10 -48 4 -248 2 -257 -3 -4 -3 -11 1 -13 7 -3 8 -6 9 -6 2z m73 -132 c13 -2
16 1 10 10 -6 10 -5 11 8 1 8 -7 18 -10 21 -6 4 3 36 7 71 7 47 1 62 -2 59
-11 -3 -7 -1 -13 4 -13 6 0 10 -315 10 -840 0 -613 -3 -840 -11 -840 -7 0 -7
-3 -1 -8 14 -10 14 -65 1 -74 -7 -5 -7 -8 -1 -8 14 0 14 -70 1 -70 -7 0 -8 -3
-1 -8 14 -10 14 -65 1 -74 -8 -5 -8 -8 -1 -8 14 0 14 -63 0 -72 -6 -5 -7 -8 0
-8 14 0 14 -70 1 -70 -7 0 -8 -3 -1 -8 14 -10 14 -65 1 -74 -7 -5 -7 -8 -1 -8
6 0 11 -11 11 -25 1 -15 -2 -22 -9 -18 -6 4 -7 1 -1 -8 25 -41 6 -52 -86 -54
-36 0 -71 -4 -77 -8 -8 -5 -13 -3 -13 3 0 6 -4 9 -8 6 -5 -3 -35 -6 -68 -7
-32 -1 -65 -7 -73 -13 -12 -9 -13 -8 -6 4 8 13 7 13 -8 1 -12 -9 -17 -10 -17
-2 0 7 -5 9 -12 5 -11 -7 -73 -15 -113 -15 -10 0 -26 -5 -34 -12 -12 -10 -13
-9 -6 2 6 11 4 13 -11 7 -10 -5 -30 -10 -44 -11 -14 -2 -27 -4 -30 -5 -3 -1
-13 -1 -24 0 -10 1 -23 -4 -28 -12 -8 -10 -11 -10 -15 0 -2 6 -10 9 -16 5 -14
-9 -43 -15 -74 -16 -13 -1 -23 -4 -23 -7 0 -4 -14 -7 -32 -8 -17 0 -35 -7 -39
-14 -6 -10 -9 -10 -9 -1 0 9 -7 10 -24 3 -13 -5 -27 -6 -30 -3 -3 4 -6 2 -6
-4 0 -6 -22 -13 -48 -17 -27 -3 -52 -9 -55 -13 -4 -3 -22 -8 -39 -10 -18 -2
-35 -8 -37 -14 -2 -7 -6 -6 -12 2 -6 10 -9 11 -9 2 0 -7 -8 -13 -18 -13 -10 0
-24 -6 -31 -12 -11 -11 -12 -10 -6 0 5 10 3 11 -11 3 -26 -13 -56 -24 -74 -25
-8 -1 -25 -7 -37 -14 -12 -7 -29 -12 -37 -12 -9 0 -16 -4 -16 -8 0 -4 -10 -8
-22 -9 -11 -1 -24 -6 -27 -10 -3 -4 -12 -8 -18 -9 -39 -3 -44 -5 -39 -13 4 -5
-5 -8 -19 -6 -15 1 -25 -3 -25 -11 0 -7 -8 -11 -20 -9 -11 2 -20 -1 -20 -6 0
-6 -4 -7 -10 -4 -5 3 -10 1 -10 -5 0 -6 -4 -9 -9 -5 -5 3 -15 -1 -23 -8 -7 -8
-21 -13 -31 -11 -10 1 -17 -5 -18 -14 0 -12 -2 -13 -6 -3 -4 10 -7 11 -13 1
-12 -20 -32 0 -27 26 2 14 0 27 -5 30 -4 3 -6 10 -3 15 8 11 8 117 1 147 -3
13 -1 20 5 17 13 -9 11 9 -3 23 -8 8 -8 12 -1 12 10 0 9 58 -2 68 -3 3 0 11 6
19 8 9 8 13 1 13 -7 0 -8 10 -2 29 4 16 6 31 4 34 -10 9 -12 47 -3 42 13 -9
11 9 -3 23 -8 8 -8 12 -1 12 10 0 9 58 -2 68 -3 3 0 11 6 19 8 9 8 13 1 13 -7
0 -8 10 -2 29 4 16 6 31 4 34 -10 9 -12 47 -3 42 13 -9 11 9 -3 23 -8 8 -8 12
-1 12 10 0 9 49 -2 78 -3 7 0 10 5 7 6 -3 10 -2 10 4 0 5 -4 12 -9 15 -5 3 -5
20 -2 38 4 18 4 50 0 70 -3 21 -2 35 2 32 5 -3 9 -1 9 5 0 5 -5 13 -10 16 -6
4 -8 11 -5 16 8 11 8 117 1 147 -3 13 -1 20 5 17 13 -9 11 9 -3 23 -8 8 -8 12
-1 12 10 0 9 58 -2 68 -3 3 0 11 6 19 8 9 8 13 1 13 -7 0 -8 10 -2 29 4 16 6
31 4 34 -10 9 -12 47 -3 42 13 -9 11 9 -3 23 -8 8 -8 12 -1 12 10 0 9 58 -2
68 -3 3 0 11 6 19 8 9 8 13 1 13 -7 0 -8 10 -2 29 4 16 6 31 4 34 -10 9 -12
47 -3 42 13 -9 11 9 -3 23 -7 7 -8 12 -2 12 10 0 10 64 0 108 -3 13 -1 20 5
17 13 -9 11 9 -3 23 -8 8 -8 12 -1 12 10 0 9 58 -2 68 -3 3 0 11 6 19 8 9 8
13 1 13 -7 0 -8 10 -2 29 4 16 6 31 4 34 -10 9 -12 47 -3 42 13 -9 11 9 -3 23
-8 8 -8 12 -1 12 10 0 9 53 -2 70 -3 5 0 12 6 16 7 4 7 9 2 13 -16 10 5 71 22
65 9 -4 15 0 15 10 0 10 6 13 15 10 8 -4 15 -1 15 6 0 6 4 9 9 5 5 -3 12 -1
16 5 4 6 11 8 16 5 5 -4 12 0 15 9 3 8 12 12 20 9 8 -3 14 0 14 7 0 7 6 10 14
7 8 -3 16 -1 18 4 2 6 11 11 20 12 9 2 24 9 34 17 13 11 16 11 10 2 -6 -11 -4
-11 10 -4 45 24 89 40 96 36 4 -3 8 0 8 5 0 6 9 11 19 11 11 0 23 5 26 10 3 6
20 10 36 10 17 0 28 4 24 10 -3 5 0 7 8 4 8 -3 18 0 22 5 3 6 10 9 15 6 4 -3
24 2 43 10 19 8 37 11 41 8 3 -4 6 -2 6 3 0 5 8 11 18 12 14 1 50 8 60 11 1 1
4 1 7 2 2 0 19 5 37 10 30 9 66 18 94 23 7 1 19 8 28 15 14 12 16 11 9 -5 -6
-17 -5 -18 11 -4 10 8 28 15 40 15 11 0 27 4 35 9 11 7 12 6 6 -5 -7 -11 -6
-12 6 -2 8 6 32 14 54 16 22 3 49 9 59 13 15 6 17 4 11 -7 -7 -12 -6 -12 7 -1
9 7 32 13 51 14 20 1 34 5 31 10 -8 12 19 5 28 -7 5 -7 8 -6 8 0 0 6 21 12 48
14 60 3 107 8 107 10 0 2 10 4 23 5 12 2 22 -2 22 -7 0 -5 7 -4 15 3 12 10 15
10 15 -1 0 -10 3 -10 8 -3 4 6 15 10 25 8 9 -1 17 3 17 9 0 8 3 8 8 2 4 -5 15
-11 26 -13z"/>
</g>
</svg>
